<?xml version="1.0" encoding="UTF-8"?>
<svg version="1.1" xmlns="http://www.w3.org/2000/svg" width="44" height="40">
<path d="M0 0 C14.52 0 29.04 0 44 0 C44 13.2 44 26.4 44 40 C29.48 40 14.96 40 0 40 C0 26.8 0 13.6 0 0 Z " fill="#07A185" transform="translate(0,0)"/>
<path d="M0 0 C1.13598633 0.00483398 1.13598633 0.00483398 2.29492188 0.00976562 C3.47344727 0.02233398 3.47344727 0.02233398 4.67578125 0.03515625 C5.47306641 0.03966797 6.27035156 0.04417969 7.09179688 0.04882812 C9.05732382 0.06059775 11.0228121 0.07853277 12.98828125 0.09765625 C13.31828125 1.08765625 13.64828125 2.07765625 13.98828125 3.09765625 C16.46328125 3.59265625 16.46328125 3.59265625 18.98828125 4.09765625 C18.65828125 4.75765625 18.32828125 5.41765625 17.98828125 6.09765625 C16.99828125 6.09765625 16.00828125 6.09765625 14.98828125 6.09765625 C14.65828125 8.07765625 14.32828125 10.05765625 13.98828125 12.09765625 C14.64828125 12.09765625 15.30828125 12.09765625 15.98828125 12.09765625 C15.98828125 13.74765625 15.98828125 15.39765625 15.98828125 17.09765625 C13.73828125 17.84765625 13.73828125 17.84765625 10.98828125 18.09765625 C8.46941656 16.20850773 7.23668986 14.84288208 6.23828125 11.84765625 C6.11453125 10.98140625 6.11453125 10.98140625 5.98828125 10.09765625 C5.32828125 10.09765625 4.66828125 10.09765625 3.98828125 10.09765625 C3.80265625 11.21140625 3.61703125 12.32515625 3.42578125 13.47265625 C2.95140625 14.66890625 2.47703125 15.86515625 1.98828125 17.09765625 C-1.63671875 18.53515625 -1.63671875 18.53515625 -5.01171875 19.09765625 C-5.01171875 19.75765625 -5.01171875 20.41765625 -5.01171875 21.09765625 C-3.87734375 21.51015625 -2.74296875 21.92265625 -1.57421875 22.34765625 C1.98828125 24.09765625 1.98828125 24.09765625 2.92578125 26.28515625 C2.94640625 26.88328125 2.96703125 27.48140625 2.98828125 28.09765625 C1.00828125 28.42765625 -0.97171875 28.75765625 -3.01171875 29.09765625 C-3.25921875 30.06703125 -3.50671875 31.03640625 -3.76171875 32.03515625 C-4.17421875 33.04578125 -4.58671875 34.05640625 -5.01171875 35.09765625 C-7.13671875 35.97265625 -7.13671875 35.97265625 -9.01171875 36.09765625 C-11.93201023 32.17351457 -13.27551469 29.97788111 -13.01171875 25.09765625 C-13.67171875 24.10765625 -14.33171875 23.11765625 -15.01171875 22.09765625 C-15.70406452 16.51863745 -15.75861887 11.61813149 -13.26171875 6.53515625 C-9.24894694 2.18798678 -6.02983868 -0.04533713 0 0 Z " fill="#05AF81" transform="translate(17.01171875,-0.09765625)"/>
<path d="M0 0 C0.99 0.33 1.98 0.66 3 1 C3.2475 1.94875 3.495 2.8975 3.75 3.875 C4.64895347 7.00768417 4.64895347 7.00768417 6.6796875 8.0625 C8.42125761 8.78990278 10.20947965 9.40315988 12 10 C12 10.66 12 11.32 12 12 C9.36 12.66 6.72 13.32 4 14 C3.67 16.31 3.34 18.62 3 21 C1.68 21 0.36 21 -1 21 C-1.2784375 19.6078125 -1.2784375 19.6078125 -1.5625 18.1875 C-3.10727559 14.76212803 -3.38621238 14.4794021 -6.625 13.125 C-7.73875 12.75375 -8.8525 12.3825 -10 12 C-9.67 11.01 -9.34 10.02 -9 9 C-5.535 8.505 -5.535 8.505 -2 8 C-1.855625 6.865625 -1.71125 5.73125 -1.5625 4.5625 C-1 1 -1 1 0 0 Z " fill="#CAFCF9" transform="translate(21,9)"/>
<path d="M0 0 C4.29 0 8.58 0 13 0 C12.01 0.66 11.02 1.32 10 2 C6.68206846 4.42775478 4.54281523 6.17808504 3 10 C2.5656593 13.2812797 2.62977237 16.56774904 2.625 19.875 C2.60050781 20.76058594 2.57601563 21.64617188 2.55078125 22.55859375 C2.52543256 28.22824992 3.18118558 31.52851548 7 36 C9.6091387 38.32277416 9.6091387 38.32277416 12 40 C8.04 40 4.08 40 0 40 C0 26.8 0 13.6 0 0 Z " fill="#ECFCFB" transform="translate(0,0)"/>
<path d="M0 0 C3.96 0 7.92 0 12 0 C12 13.2 12 26.4 12 40 C8.04 40 4.08 40 0 40 C0.7425 39.46375 1.485 38.9275 2.25 38.375 C5.78223002 35.32443771 8.57578666 32.50264279 9.38378906 27.73583984 C9.53744286 25.14560309 9.54577962 22.59417824 9.5 20 C9.51546875 19.1234375 9.5309375 18.246875 9.546875 17.34375 C9.51307737 11.73334297 8.75397853 8.42531045 5 4 C2.3908613 1.67722584 2.3908613 1.67722584 0 0 Z " fill="#EFFCFC" transform="translate(32,0)"/>
<path d="M0 0 C4.875 0.875 4.875 0.875 6 2 C7.66617115 2.04063832 9.33388095 2.042721 11 2 C11 2.66 11 3.32 11 4 C11.66 4 12.32 4 13 4 C13 5.65 13 7.3 13 9 C10.75 9.75 10.75 9.75 8 10 C5.48113531 8.11085148 4.24840861 6.74522583 3.25 3.75 C3.1675 3.1725 3.085 2.595 3 2 C2.01 2 1.02 2 0 2 C0 1.34 0 0.68 0 0 Z " fill="#1D9F82" transform="translate(20,8)"/>
<path d="M0 0 C5.75 0.75 5.75 0.75 8 3 C8 3.99 8 4.98 8 6 C3.545 6.495 3.545 6.495 -1 7 C-0.67 4.69 -0.34 2.38 0 0 Z " fill="#43B99E" transform="translate(12,22)"/>
<path d="M0 0 C2 0 2 0 4.125 1.875 C6 4 6 4 6 6 C5.01 6 4.02 6 3 6 C2.67 7.65 2.34 9.3 2 11 C1.34 11 0.68 11 0 11 C-0.12375 10.360625 -0.2475 9.72125 -0.375 9.0625 C-0.58125 8.381875 -0.7875 7.70125 -1 7 C-1.66 6.67 -2.32 6.34 -3 6 C-3 5.34 -3 4.68 -3 4 C-2.34 4 -1.68 4 -1 4 C-0.67 2.68 -0.34 1.36 0 0 Z " fill="#34A48D" transform="translate(21,15)"/>
<path d="M0 0 C0.99 0.33 1.98 0.66 3 1 C2.67 1.66 2.34 2.32 2 3 C1.34 2.67 0.68 2.34 0 2 C0 2.66 0 3.32 0 4 C0.66 4 1.32 4 2 4 C2 4.66 2 5.32 2 6 C1.34 6 0.68 6 0 6 C-0.33 7.32 -0.66 8.64 -1 10 C-1.66 10 -2.32 10 -3 10 C-3 10.66 -3 11.32 -3 12 C-3.66 12 -4.32 12 -5 12 C-5 11.34 -5 10.68 -5 10 C-5.99 10 -6.98 10 -8 10 C-7.67 10.99 -7.34 11.98 -7 13 C-7.99 12.67 -8.98 12.34 -10 12 C-9.67 11.01 -9.34 10.02 -9 9 C-5.535 8.505 -5.535 8.505 -2 8 C-1.855625 6.865625 -1.71125 5.73125 -1.5625 4.5625 C-1 1 -1 1 0 0 Z " fill="#AEECE2" transform="translate(21,9)"/>
<path d="M0 0 C2.88435772 3.26057829 3.29661075 5.77966448 4 10 C5.84622368 13.10501256 6.50865288 13.83621763 10 15 C10 15.66 10 16.32 10 17 C5.57258356 15.64717831 3.63690779 13.76701112 1 10 C-0.60725635 6.78548731 -0.05748185 3.56387464 0 0 Z " fill="#21A483" transform="translate(2,22)"/>
<path d="M0 0 C0.99 0 1.98 0 3 0 C3.33 1.65 3.66 3.3 4 5 C1.44931155 7.35448165 0.28982642 7.98327924 -3.25 8.1875 C-4.1575 8.125625 -5.065 8.06375 -6 8 C-6 7.34 -6 6.68 -6 6 C-3.36 5.34 -0.72 4.68 2 4 C1.34 2.68 0.68 1.36 0 0 Z " fill="#1EA388" transform="translate(31,17)"/>
<path d="M0 0 C0.99 0 1.98 0 3 0 C3 0.66 3 1.32 3 2 C4.65 2.33 6.3 2.66 8 3 C8 4.32 8 5.64 8 7 C8.66 7.33 9.32 7.66 10 8 C9.34 8 8.68 8 8 8 C7.67 8.99 7.34 9.98 7 11 C6.6596875 9.6078125 6.6596875 9.6078125 6.3125 8.1875 C4.77571295 4.45530287 3.47241055 3.8275845 0 2 C0 1.34 0 0.68 0 0 Z " fill="#BDF2EB" transform="translate(13,19)"/>
<path d="M0 0 C0.99 0.33 1.98 0.66 3 1 C3.268125 1.639375 3.53625 2.27875 3.8125 2.9375 C4.91161165 5.338822 4.91161165 5.338822 8.125 6.25 C9.07375 6.4975 10.0225 6.745 11 7 C10.01 7.33 9.02 7.66 8 8 C8 8.66 8 9.32 8 10 C7.34 10 6.68 10 6 10 C6 9.34 6 8.68 6 8 C4.68 7.34 3.36 6.68 2 6 C2 4.68 2 3.36 2 2 C1.34 2 0.68 2 0 2 C0 1.34 0 0.68 0 0 Z " fill="#C8F4F0" transform="translate(21,11)"/>
<path d="M0 0 C0.33 0 0.66 0 1 0 C1 2.64 1 5.28 1 8 C-0.65 7.67 -2.3 7.34 -4 7 C-2.79618552 4.50638429 -1.54571278 2.31856917 0 0 Z " fill="#FDFCFC" transform="translate(43,32)"/>
<path d="M0 0 C1 3 1 3 1 6 C-1.64 6 -4.28 6 -7 6 C-6.21625 5.38125 -5.4325 4.7625 -4.625 4.125 C-2.03162353 2.10141339 -2.03162353 2.10141339 0 0 Z " fill="#D7F7F6" transform="translate(39,34)"/>
<path d="M0 0 C2.875 -0.125 2.875 -0.125 6 0 C6.66 0.66 7.32 1.32 8 2 C7.625 4.125 7.625 4.125 7 6 C4.56070254 4.07423885 2.19909405 2.19909405 0 0 Z " fill="#D6F8F4" transform="translate(32,0)"/>
<path d="M0 0 C-5.14285714 4.42857143 -5.14285714 4.42857143 -9 5 C-8 2 -8 2 -6 0 C-2.44444444 -1.22222222 -2.44444444 -1.22222222 0 0 Z " fill="#1D9987" transform="translate(39,35)"/>
<path d="M0 0 C0.66 0 1.32 0 2 0 C2 0.66 2 1.32 2 2 C2.66 2 3.32 2 4 2 C4 2.66 4 3.32 4 4 C3.34 4 2.68 4 2 4 C2 4.66 2 5.32 2 6 C1.34 6 0.68 6 0 6 C0 5.34 0 4.68 0 4 C-0.66 4 -1.32 4 -2 4 C-2 3.34 -2 2.68 -2 2 C-1.34 2 -0.68 2 0 2 C0 1.34 0 0.68 0 0 Z " fill="#C1FEF8" transform="translate(29,10)"/>
<path d="M0 0 C2.05078125 0.03255208 4.1015625 0.06510417 6.15234375 0.09765625 C3.52587187 1.84863751 0.86458993 3.48496933 -1.84765625 5.09765625 C-2.41015625 3.16015625 -2.41015625 3.16015625 -2.84765625 1.09765625 C-1.84765625 0.09765625 -1.84765625 0.09765625 0 0 Z " fill="#D4F9F0" transform="translate(6.84765625,-0.09765625)"/>
</svg>
